<svg width="17" height="16" viewBox="0 0 17 16" fill="none" xmlns="http://www.w3.org/2000/svg">
<path d="M4 2C3.72428 2.00011 3.50053 2.2234 3.5 2.49902C3.5 2.775 3.72408 2.99974 4 3L5.24609 3C4.92318 3.24309 4.58676 3.52659 4.2666 3.85644C3.33034 4.82114 2.50002 6.18958 2.5 8C2.50004 11.5807 5.24129 14 8.5 14C11.7761 14 14.5 11.2761 14.5 8C14.5 6.4183 14.1041 5.04812 13.2656 4C12.4766 3.01379 11.3324 2.35876 9.87695 2.06152L9.58203 2.00684L9.48145 2C9.24893 2.00839 9.04661 2.17956 9.00684 2.41797C8.96722 2.65631 9.10316 2.88345 9.32031 2.9668L9.41797 2.99316L9.67676 3.04102C10.9458 3.29995 11.8671 3.85345 12.4844 4.625C13.1458 5.45184 13.5 6.58182 13.5 8C13.5 10.7238 11.2238 13 8.5 13C5.75876 13 3.50004 10.9942 3.5 8C3.50002 6.52308 4.16977 5.39111 4.9834 4.55273C5.48743 4.03341 6.03893 3.63552 6.5 3.35059L6.5 5.5C6.50009 5.77601 6.72398 5.99991 7 6C7.27601 5.99991 7.49991 5.77601 7.5 5.5L7.5 2.5L7.49023 2.39844C7.44336 2.17099 7.24131 2.00008 7 2L4 2Z" fill="#C3D2DF"/>
</svg>
